<svg xmlns="http://www.w3.org/2000/svg" viewBox="0 0 720 260" width="720" height="260" font-family="ui-sans-serif, system-ui, sans-serif">
<rect width="720" height="260" fill="none"/>
<line x1="44" y1="110.0" x2="704" y2="110.0" stroke="#d8d8d8" stroke-width="1"/>
<text x="36" y="114.0" font-size="11" fill="#777" text-anchor="end">8</text>
<line x1="44" y1="16.0" x2="704" y2="16.0" stroke="#d8d8d8" stroke-width="1"/>
<text x="36" y="20.0" font-size="11" fill="#777" text-anchor="end">16</text>
<rect x="62.2" y="51.2" width="46.0" height="152.8" fill="#2f9e5e"><title>HARBOR-47: 13</title></rect>
<rect x="62.2" y="39.5" width="46.0" height="11.8" fill="#d1453b"><title>HARBOR-47: 1</title></rect>
<text x="85.2" y="220" font-size="11" fill="#555" text-anchor="middle">HARBOR-47</text>
<text x="85.2" y="234" font-size="10" fill="#999" text-anchor="middle">staging</text>
<text x="85.2" y="34.5" font-size="10" fill="#555" text-anchor="middle">14</text>
<rect x="144.8" y="39.5" width="46.0" height="164.5" fill="#2f9e5e"><title>HARBOR-66: 14</title></rect>
<text x="167.8" y="220" font-size="11" fill="#555" text-anchor="middle">HARBOR-66</text>
<text x="167.8" y="234" font-size="10" fill="#999" text-anchor="middle">staging</text>
<text x="167.8" y="34.5" font-size="10" fill="#555" text-anchor="middle">14</text>
<rect x="227.2" y="39.5" width="46.0" height="164.5" fill="#2f9e5e"><title>HARBOR-88: 14</title></rect>
<text x="250.2" y="220" font-size="11" fill="#555" text-anchor="middle">HARBOR-88</text>
<text x="250.2" y="234" font-size="10" fill="#999" text-anchor="middle">staging</text>
<text x="250.2" y="34.5" font-size="10" fill="#555" text-anchor="middle">14</text>
<rect x="309.8" y="51.2" width="46.0" height="152.8" fill="#2f9e5e"><title>LEDGER-43: 13</title></rect>
<text x="332.8" y="220" font-size="11" fill="#555" text-anchor="middle">LEDGER-43</text>
<text x="332.8" y="234" font-size="10" fill="#999" text-anchor="middle">staging</text>
<text x="332.8" y="46.2" font-size="10" fill="#555" text-anchor="middle">13</text>
<rect x="392.2" y="39.5" width="46.0" height="164.5" fill="#2f9e5e"><title>HARBOR-104: 14</title></rect>
<text x="415.2" y="220" font-size="11" fill="#555" text-anchor="middle">HARBOR-104</text>
<text x="415.2" y="234" font-size="10" fill="#999" text-anchor="middle">staging</text>
<text x="415.2" y="34.5" font-size="10" fill="#555" text-anchor="middle">14</text>
<rect x="474.8" y="121.8" width="46.0" height="82.2" fill="#2f9e5e"><title>FIELD-38: 7</title></rect>
<rect x="474.8" y="110.0" width="46.0" height="11.8" fill="#d1453b"><title>FIELD-38: 1</title></rect>
<text x="497.8" y="220" font-size="11" fill="#555" text-anchor="middle">FIELD-38</text>
<text x="497.8" y="234" font-size="10" fill="#999" text-anchor="middle">staging</text>
<text x="497.8" y="105.0" font-size="10" fill="#555" text-anchor="middle">8</text>
<rect x="557.2" y="16.0" width="46.0" height="188.0" fill="#2f9e5e"><title>HARBOR-125: 16</title></rect>
<text x="580.2" y="220" font-size="11" fill="#555" text-anchor="middle">HARBOR-125</text>
<text x="580.2" y="234" font-size="10" fill="#999" text-anchor="middle">staging</text>
<text x="580.2" y="11.0" font-size="10" fill="#555" text-anchor="middle">16</text>
<rect x="639.8" y="74.8" width="46.0" height="129.2" fill="#2f9e5e"><title>FIELD-56: 11</title></rect>
<text x="662.8" y="220" font-size="11" fill="#555" text-anchor="middle">FIELD-56</text>
<text x="662.8" y="234" font-size="10" fill="#999" text-anchor="middle">staging</text>
<text x="662.8" y="69.8" font-size="10" fill="#555" text-anchor="middle">11</text>
<rect x="44" y="244" width="10" height="10" fill="#2f9e5e"/>
<text x="59" y="253" font-size="11" fill="#555">passed</text>
<rect x="136" y="244" width="10" height="10" fill="#d1453b"/>
<text x="151" y="253" font-size="11" fill="#555">failed</text>
<rect x="228" y="244" width="10" height="10" fill="#9a9a9a"/>
<text x="243" y="253" font-size="11" fill="#555">other</text>
</svg>
